Coordinates
version=1
nRows=26
nColumns=24
inDegrees=yes

Units are S.I. units (second, meters, Newtons, ...)
Angles are in degrees.

endheader
time	pelvis_tilt	pelvis_list	pelvis_rotation	pelvis_tx	pelvis_ty	pelvis_tz	hip_flexion_r	hip_adduction_r	hip_rotation_r	knee_angle_r	ankle_angle_r	subtalar_angle_r	mtp_angle_r	hip_flexion_l	hip_adduction_l	hip_rotation_l	knee_angle_l	ankle_angle_l	subtalar_angle_l	mtp_angle_l	lumbar_extension	lumbar_bending	lumbar_rotation
      0.68300000	      4.12085988	      2.23077372	     12.32459348	      0.07194365	      1.00343069	      0.22224560	     23.86314940	     -4.60804060	     -7.27350774	     -2.10611168	      7.18749444	     -6.06532208	      4.82685699	    -21.79403099	      1.77460670	     16.16152903	    -13.53893862	     15.33562685	     -8.31352954	     -6.15517173	     -7.37541756	     -3.53349978	    -10.01526323
      0.68716667	      4.14780679	      2.12025148	     12.52291308	      0.07815575	      1.00286346	      0.22252380	     23.87773293	     -4.51162952	     -7.13297771	     -2.78571851	      7.16112847	     -6.47718824	      4.88000783	    -21.94872809	      1.50711492	     16.12901917	    -13.91427508	     15.18820459	     -8.14513964	     -6.16282997	     -7.29926205	     -3.40058499	    -10.17529598
      0.69133333	      4.18589449	      2.00557993	     12.73245035	      0.08439267	      1.00233080	      0.22282820	     23.85318028	     -4.39839399	     -6.98753290	     -3.40713073	      6.96903408	     -7.04133466	      4.96626439	    -22.09183053	      1.22533502	     16.06378097	    -14.33268866	     15.04650427	     -7.95462690	     -6.12777300	     -7.24362664	     -3.27270877	    -10.33145711
      0.69550000	      4.21942309	      1.87845965	     12.92933081	      0.09071223	      1.00180357	      0.22317056	     23.82617794	     -4.26046733	     -6.85596784	     -4.01454627	      6.73640108	     -7.58550013	      5.07360744	    -22.23529052	      0.93084403	     15.98845636	    -14.73295657	     14.86358061	     -7.76786857	     -6.04787083	     -7.16360237	     -3.13324433	    -10.46723345
      0.69966667	      4.25852214	      1.74404618	     13.12399362	      0.09708472	      1.00129849	      0.22354769	     23.78121114	     -4.10323859	     -6.74081110	     -4.59317808	      6.43073624	     -8.15966960	      5.21714204	    -22.38016573	      0.62276586	     15.89736641	    -15.13449807	     14.65503743	     -7.56581416	     -5.90847439	     -7.08638900	     -2.99200621	    -10.59956752
      0.70383333	      4.29894427	      1.59634296	     13.31232531	      0.10352000	      1.00081302	      0.22395269	     23.72487182	     -3.92162915	     -6.64709916	     -5.14210599	      6.04229683	     -8.73901000	      5.38682146	    -22.51908862	      0.29874893	     15.78126176	    -15.54110663	     14.41450515	     -7.36793431	     -5.71795001	     -6.99649030	     -2.83538020	    -10.72520618
      0.70800000	      4.34551909	      1.44083891	     13.49609320	      0.11000160	      1.00034917	      0.22439807	     23.65327495	     -3.71920681	     -6.57031319	     -5.65939124	      5.57332701	     -9.34042686	      5.58868375	    -22.65485330	     -0.03806486	     15.63667651	    -15.95839289	     14.14548165	     -7.15903081	     -5.46779959	     -6.90012103	     -2.67151965	    -10.84183914
      0.71216667	      4.39159556	      1.27060634	     13.66997769	      0.11654203	      0.99990050	      0.22487535	     23.57844737	     -3.49095320	     -6.51142388	     -6.15169874	      5.01579134	     -9.96224046	      5.82279326	    -22.78443028	     -0.39043664	     15.46844441	    -16.37581037	     13.84592083	     -6.93858762	     -5.15627045	     -6.79968160	     -2.49668857	    -10.94977795
      0.71633333	      4.43712130	      1.08736679	     13.82975710	      0.12313579	      0.99945205	      0.22538979	     23.51660141	     -3.24424975	     -6.51766390	     -6.65025570	      4.41308768	    -10.47975743	      8.10033058	    -22.89375127	     -0.76213224	     15.20164829	    -16.81149733	     13.46720584	     -6.61205230	     -2.04111972	     -6.66495628	     -2.30367715	    -10.89762013
      0.72050000	      4.48663657	      0.91224478	     13.99550953	      0.12974445	      0.99905948	      0.22590741	     23.42980048	     -2.99543609	     -6.50134486	     -7.09745712	      3.69289355	    -11.10088641	      8.12484638	    -23.01850785	     -1.11526004	     15.06386743	    -17.23083060	     13.04621351	     -6.55130613	     -1.94336889	     -6.56385822	     -2.13086779	    -11.12561448
      0.72466667	      4.53373794	      0.70099735	     14.13422302	      0.13643104	      0.99866039	      0.22646797	     23.36015717	     -2.69751320	     -6.50019430	     -7.54727646	      2.92778854	    -11.68536862	      8.17937929	    -23.12610527	     -1.50319857	     14.82900879	    -17.66382641	     12.65684109	     -6.33818332	     -1.80444633	     -6.42131406	     -1.89381207	    -11.18813014
      0.72883333	      4.59492167	      0.51459074	     14.27267744	      0.14308824	      0.99830517	      0.22710812	     23.26613243	     -2.40668252	     -6.45435332	     -7.97044878	      2.10643258	    -12.36814158	      8.31733409	    -23.21316564	     -1.87963920	     14.52007399	    -18.15459112	     12.19946449	     -6.06335517	     -1.51449182	     -6.32862801	     -1.74666253	    -11.25176555
      0.73300000	      4.65311435	      0.28163414	     14.40019810	      0.14981735	      0.99795680	      0.22773074	     23.18601123	     -2.06689446	     -6.45521701	     -8.38867159	      1.23723077	    -12.99966797	      8.46663374	    -23.28260211	     -2.29323890	     14.19813713	    -18.66180335	     11.75536730	     -5.85127883	     -1.20588263	     -6.18513094	     -1.50006591	    -11.29839869
      0.73716667	      4.73161712	      0.05397955	     14.50405558	      0.15655090	      0.99764552	      0.22841716	     23.11024200	     -1.72071597	     -6.48482529	     -8.84814336	      0.36703875	    -13.52784219	     10.52406167	    -23.36020682	     -2.71118995	     13.79134800	    -19.16796604	     11.16679642	     -5.52324164	      2.78391198	     -6.07642204	     -1.26404492	    -11.23553960
      0.74133333	      4.76863547	     -0.17852543	     14.59465021	      0.16331038	      0.99731647	      0.22911554	     23.08378922	     -1.36904220	     -6.46948421	     -9.31245893	     -0.53872829	    -14.12043455	     10.52809483	    -23.38485268	     -3.10110286	     13.45480323	    -19.70232246	     10.57696452	     -5.43480264	      2.88164241	     -5.90542728	     -1.04389348	    -11.34493307
      0.74550000	      4.83740381	     -0.43295271	     14.66633909	      0.17007982	      0.99703519	      0.22986143	     23.03989762	     -0.97757802	     -6.44361374	     -9.79521285	     -1.42068533	    -14.67897571	     10.57029048	    -23.41598977	     -3.52420990	     13.02578938	    -20.27054537	      9.99371666	     -5.19423266	      3.06113787	     -5.77503439	     -0.76728272	    -11.33767145
      0.74966667	      4.90842025	     -0.67898958	     14.72117368	      0.17684087	      0.99678401	      0.23064992	     23.01373406	     -0.58741192	     -6.41611693	    -10.32183164	     -2.26897061	    -15.21066317	     10.65091406	    -23.42397884	     -3.93499904	     12.54982117	    -20.87809188	      9.34176823	     -4.95502611	      3.34007001	     -5.64986088	     -0.53751917	    -11.32018445
      0.75383333	      4.98638830	     -0.94032999	     14.75415316	      0.18361380	      0.99655072	      0.23148051	     22.99769732	     -0.16980436	     -6.36911149	    -10.87379909	     -3.09971902	    -15.74768298	     10.77295197	    -23.41561725	     -4.35587703	     12.03469213	    -21.52351356	      8.66180766	     -4.70996509	      3.74880796	     -5.52026274	     -0.27867240	    -11.28049412
      0.75800000	      5.10854606	     -1.20785275	     14.78290409	      0.19036901	      0.99640957	      0.23230312	     22.95436951	      0.25810446	     -6.36898065	    -11.47160373	     -3.82634389	    -16.11555235	     12.25579862	    -23.43662047	     -4.79347280	     11.50450847	    -22.16746282	      7.75624689	     -4.55226310	      8.71999073	     -5.46891979	      0.02386385	    -11.23755081
      0.76216667	      5.13618948	     -1.47558533	     14.77365402	      0.19713698	      0.99613935	      0.23319520	     23.04824915	      0.67648454	     -6.30650286	    -12.15334350	     -4.48129353	    -16.48436849	     12.24022285	    -23.31821699	     -5.19071472	     10.92689256	    -22.90818461	      6.99524031	     -4.36630287	      8.80970950	     -5.27008902	      0.27695315	    -11.17346478
      0.76633333	      5.23560839	     -1.74157580	     14.76201140	      0.20386227	      0.99599865	      0.23411001	     23.06578829	      1.11643608	     -6.22993986	    -12.83618696	     -5.10534205	    -16.85696854	     12.23831282	    -23.24962993	     -5.60903980	     10.31801431	    -23.67819797	      6.14054364	     -4.13060986	      9.03199814	     -5.19000730	      0.54775100	    -11.08391432
      0.77050000	      5.33092064	     -1.99187541	     14.72560484	      0.21058175	      0.99587688	      0.23501822	     23.12851415	      1.52801289	     -6.22391253	    -13.63653511	     -5.47042477	    -16.92282526	     12.23748712	    -23.16692028	     -5.99210293	      9.72214293	    -24.46471188	      5.17061739	     -4.04608934	      9.09511940	     -5.09001655	      0.80976587	    -11.06246931
      0.77466667	      5.45003377	     -2.29428233	     14.68236042	      0.21729872	      0.99577418	      0.23599550	     23.14730048	      2.02581538	     -6.10775827	    -14.35527028	     -6.05443348	    -17.32764700	     12.33513917	    -23.05501959	     -6.45009396	      9.02218033	    -25.32014801	      4.16052147	     -3.90224500	     13.57889445	     -5.03150892	      1.13983193	    -10.92894625
      0.77883333	      5.53905363	     -2.56071358	     14.61729969	      0.22398452	      0.99565646	      0.23699029	     23.23186872	      2.47232446	     -6.01052543	    -15.19704069	     -6.27276172	    -17.41162909	     12.33100404	    -22.89226086	     -6.85100167	      8.34721237	    -26.22176673	      3.12386660	     -3.76762576	     13.59774573	     -4.94975729	      1.41733411	    -10.85287415
      0.78300000	      5.65014792	     -2.84278792	     14.52774726	      0.23066148	      0.99556302	      0.23803717	     23.29736851	      2.95266416	     -5.90969020	    -16.03391920	     -6.55751780	    -17.61093599	     12.30714699	    -22.71974144	     -7.27428292	      7.60281855	    -27.18105836	      2.11742787	     -3.61680685	     13.72183756	     -4.86749646	      1.71746129	    -10.65972484
      0.78716667	      5.77115313	     -3.09912918	     14.45104033	      0.23726563	      0.99552874	      0.23906591	     23.34784392	      3.39922496	     -5.82192887	    -16.88896881	     -6.70234484	    -17.64341718	     12.29203969	    -22.52640249	     -7.67708733	      6.91193704	    -28.17657791	      0.95636984	     -3.52651486	     13.78605439	     -4.84284984	      1.98420852	    -10.59814538
